<svg xmlns="http://www.w3.org/2000/svg" width="48" height="48" fill="none" viewBox="0 0 48 48">
  <defs>
    <linearGradient id="grad1" x1="0%" y1="0%" x2="100%" y2="100%">
      <stop offset="0%" style="stop-color:#10B981;stop-opacity:1" />
      <stop offset="100%" style="stop-color:#059669;stop-opacity:1" />
    </linearGradient>
  </defs>
  <circle cx="24" cy="24" r="22" fill="url(#grad1)" stroke="#065F46" stroke-width="2"/>
  <path fill="white" d="M24 8c-8.8 0-16 7.2-16 16s7.2 16 16 16 16-7.2 16-16S32.8 8 24 8zm0 30c-7.7 0-14-6.3-14-14S16.3 10 24 10s14 6.3 14 14-6.3 14-14 14z"/>
  <path fill="white" d="M26 14h-4v8h-6l8 8 8-8h-6V14z"/>
  <path fill="white" d="M18 32h12v2H18v-2z"/>
</svg>